<svg aria-hidden="true" style="position:absolute;width:0;height:0;overflow:hidden" xmlns="http://www.w3.org/2000/svg">
  <defs>
    <symbol id="icon-facebook" viewBox="0 0 32 32">
      <path d="M21.329 5.313h2.921V.225C23.746.156 22.013 0 19.994 0c-4.212 0-7.097 2.649-7.097 7.519V12H8.249v5.688h4.648V32h5.699V17.689h4.46l.708-5.688h-5.169V8.082c.001-1.644.444-2.769 2.735-2.769z"/>
    </symbol>
    <symbol id="icon-linkedin" viewBox="0 0 32 32">
      <path d="M31.992 32v-.001H32V20.263c0-5.741-1.236-10.164-7.948-10.164-3.227 0-5.392 1.771-6.276 3.449h-.093v-2.913h-6.364v21.364h6.627V21.42c0-2.785.528-5.479 3.977-5.479 3.399 0 3.449 3.179 3.449 5.657v10.401h6.62zM.528 10.636h6.635V32H.528V10.636zM3.843 0C1.722 0 0 1.721 0 3.843s1.721 3.879 3.843 3.879c2.121 0 3.843-1.757 3.843-3.879C7.685 1.722 5.963 0 3.843 0z"/>
    </symbol>
    <symbol id="icon-twitter" viewBox="0 0 32 32">
      <path d="M32 6.078c-1.19.522-2.458.868-3.78 1.036 1.36-.812 2.398-2.088 2.886-3.626-1.268.756-2.668 1.29-4.16 1.588C25.742 3.794 24.026 3 22.154 3c-3.632 0-6.556 2.948-6.556 6.562 0 .52.044 1.02.152 1.496-5.454-.266-10.28-2.88-13.522-6.862-.566.982-.898 2.106-.898 3.316 0 2.272 1.17 4.286 2.914 5.452-1.054-.02-2.088-.326-2.964-.808v.072c0 3.188 2.274 5.836 5.256 6.446-.534.146-1.116.216-1.72.216-.42 0-.844-.024-1.242-.112.85 2.598 3.262 4.508 6.13 4.57-2.232 1.746-5.066 2.798-8.134 2.798-.538 0-1.054-.024-1.57-.09C2.906 27.93 6.35 29 10.064 29c12.072 0 18.672-10 18.672-18.668 0-.29-.01-.57-.024-.848C30.014 8.56 31.108 7.406 32 6.078z"/>
    </symbol>
    <symbol id="icon-google-plus" viewBox="0 0 32 32">
      <path d="M10.181 14.294v3.494h5.775c-.231 1.5-1.744 4.394-5.775 4.394-3.475 0-6.313-2.881-6.313-6.431S6.706 9.32 10.181 9.32c1.981 0 3.3.844 4.056 1.569l2.762-2.662c-1.775-1.656-4.075-2.662-6.819-2.662C4.549 5.571-.001 10.121-.001 15.753s4.55 10.181 10.181 10.181c5.875 0 9.775-4.131 9.775-9.95 0-.669-.075-1.181-.163-1.688h-9.613zM32 14h-3v-3h-3v3h-3v3h3v3h3v-3h3z"/>
    </symbol>
    <symbol id="icon-webovio" viewBox="0 0 181 32">
      <path d="M139.253 7.741c2.201 0 3.956-1.755 3.956-3.922 0-2.133-1.754-3.819-3.887-3.819s-3.853 1.755-3.853 3.888c0 2.167 1.686 3.853 3.784 3.853zM67.314 30.379v-2.202c1.961 1.927 4.025 2.718 6.812 2.718 5.952 0 9.702-5.161 9.702-11.044 0-5.745-3.681-11.009-9.908-11.009-3.681 0-6.502 2.408-6.502 2.408v-7.225h-6.365v26.353h6.262zM47.394 30.895c4.438 0 8.016-2.202 9.874-5.505l-0.405-0.246c-1.464-0.879-4.583-2.678-4.583-2.678l-0.192 0.248c-1.069 1.361-2.405 2.677-4.384 2.677-2.408 0-4.404-1.204-4.954-3.716h14.863c0.022-0.31 0.016-0.535 0.008-0.793-0.003-0.093-0.005-0.19-0.007-0.296l-0.001-0.183c0-7.535-4.301-11.56-10.39-11.56-6.227 0-10.803 4.61-10.803 11.009 0 7.087 4.473 11.044 10.975 11.044zM8.242 30.379h5.539l3.784-11.353 3.922 11.353h5.539l7.947-21.124h-6.64l-4.163 11.766-4.060-11.766h-5.126l-3.853 11.697-4.197-11.697h-6.743l8.051 21.124zM47.153 14.209c1.995 0 3.096 0.963 3.853 2.993h-8.016c0.791-1.961 1.995-2.993 4.163-2.993zM72.474 14.759c2.89 0 4.989 2.271 4.989 4.954 0 2.993-1.583 5.505-4.713 5.505-3.337 0-5.505-2.099-5.505-5.367 0-3.062 2.236-5.092 5.229-5.092zM97.658 31.101c6.88 0 11.525-4.851 11.525-11.285 0-6.365-4.988-10.975-11.387-10.975-6.503 0-11.56 4.748-11.56 11.078 0 5.883 4.954 11.181 11.423 11.181zM97.761 14.863c2.993 0 5.058 2.133 5.058 4.851 0 3.303-1.927 5.333-5.092 5.333-2.924 0-5.092-2.202-5.092-5.023 0-2.89 2.030-5.161 5.126-5.161zM125.25 30.379l8.292-21.124h-6.744l-4.335 12.351-4.61-12.351h-7.156l8.841 21.124h5.711zM142.487 9.255v21.124h-6.399v-21.124h6.399zM145.927 19.92c0-6.33 5.058-11.078 11.56-11.078 6.399 0 11.388 4.61 11.388 10.975 0 6.434-4.645 11.285-11.526 11.285-6.468 0-11.422-5.298-11.422-11.181zM162.509 19.713c0-2.718-2.064-4.851-5.057-4.851-3.096 0-5.127 2.271-5.127 5.161 0 2.821 2.168 5.023 5.092 5.023 3.165 0 5.092-2.030 5.092-5.333z"></path>
      <path d="M175.136 22.759c2.168 0 3.956 1.789 3.956 3.957s-1.788 3.956-3.956 3.956c-2.168 0-3.957-1.789-3.957-3.956s1.789-3.957 3.957-3.957z"></path>
    </symbol>
    <symbol id="icon-menu" viewBox="0 0 44 32">
      <path d="M0 0v4.431h44.308v-4.431h-44.308zM0 13.292v4.431h44.308v-4.431h-44.308zM0 31.015v-4.431h44.308v4.431h-44.308z"></path>
    </symbol>
  </defs>
</svg>
